<svg width="48" height="40" viewBox="0 0 48 40" fill="none" xmlns="http://www.w3.org/2000/svg"><path fill-rule="evenodd" clip-rule="evenodd" d="M35.12 13.95c.16-.55 0-.95-.8-.95h-2.62c-.67 0-.98.35-1.15.73 0 0-1.33 3.2-3.22 5.27-.61.6-.9.8-1.23.8-.16 0-.41-.2-.41-.74v-5.11c0-.66-.19-.95-.74-.95h-4.13c-.42 0-.67.3-.67.6 0 .61.95.76 1.04 2.5v3.8c0 .84-.15.99-.48.99-.9 0-3.06-3.21-4.34-6.89-.25-.71-.5-1-1.18-1h-2.62c-.75 0-.9.35-.9.73 0 .68.89 4.07 4.14 8.55 2.17 3.06 5.23 4.72 8 4.72 1.68 0 1.88-.37 1.88-1v-2.32c0-.73.16-.88.7-.88.38 0 1.05.2 2.6 1.67 1.79 1.75 2.08 2.53 3.08 2.53h2.63c.75 0 1.12-.37.9-1.1-.23-.72-1.08-1.77-2.2-3.02-.62-.7-1.54-1.47-1.82-1.86-.39-.49-.28-.7 0-1.14 0 0 3.2-4.43 3.54-5.93Z" fill="#83B3D3"/></svg>