<svg width="75" height="76" viewBox="0 0 75 76" fill="none" xmlns="http://www.w3.org/2000/svg"><path d="M67.1 22.46h-24.8c13.8-6.9 14.9-11.3 14.4-13.7-1.2-4.01-5.7-7.01-10-5.41-5.6 2.1-7.1 10.4-8.6 16.41-2-6.1-3.8-13.8-8.2-17.71-1.3-1.1-3.1-2.3-5.8-2-4 .4-9.8 5.4-7.5 11 2.3 5.4 9.7 8.81 14.6 11.51h-22.3a2.9 2.9 0 0 0-2.9 2.9v11.31c0 1.6 1.3 2.9 2.9 2.9h.3v36.33h57.8v-36.43h.1c1.6 0 2.9-1.3 2.9-2.9v-11.3c0-1.6-1.3-2.9-2.9-2.9Zm-18.7-16.6c2.1-.3 5 1.3 5.3 3.2.4 2.8-3.4 5.3-5.1 6.4-2.5 1.7-4.9 2.6-7.3 4.1.9-3.7 2.5-13 7.1-13.7Zm-22.9 10c-2.2-1.5-6.5-4.4-6.4-7.8.1-3.61 5.7-6.61 8.8-3.91 3.9 3.4 5.7 11.1 7.1 16.61-3.2-1.5-6.3-2.8-9.5-4.9Zm6 57.14h-19.4v-33.43h19.4v33.43Zm0-36.53h-22.5v-11h22.5v11Zm10.2 0v36.53h-7.2v-47.43h7.2v10.9Zm22.3 36.53h-19.4v-33.43h19.4v33.43Zm2.9-36.53h-22.3v-11h22.3v11Z" fill="#83B3D3"/></svg>