<svg width="76" height="72" viewBox="0 0 76 72" fill="none" xmlns="http://www.w3.org/2000/svg"><path d="M30.62 65h16.06v-23.8h-16.06v23.8Zm2.91-20.9h10.14v18h-10.14v-18Z" fill="#83B3D3"/><path d="m73.9 39.3 2.1-2.1-9.94-9.9v-27.3h-13.96v13.6l-13.65-13.6-37.45 37.2 2.1 2.1 7.84-7.8v37.6h-4.02v2.9h64.16v-2.9h-5.12v-37.6l7.93 7.8Zm-10.85 29.8h-49.2v-40.6l24.6-24.4 24.6 24.4v40.6Zm0-44.7-7.93-7.9v-13.6h7.93v21.5Z" fill="#83B3D3"/><path d="M30.82 27.1c0 4.3 3.51 7.7 7.73 7.7a7.8 7.8 0 0 0 7.83-7.7c0-4.3-3.51-7.7-7.83-7.7a7.72 7.72 0 0 0-7.73 7.7Zm7.83-5a5 5 0 0 1 5.02 4.9c0 2.7-2.2 4.9-5.02 4.9a5 5 0 0 1-5.02-4.9c0-2.7 2.2-4.9 5.02-4.9Zm-17.67 19.1h-3.01v3.9h3.01v-3.9Zm5.92 0h-3v3.9h3v-3.9Zm-5.92 6h-3.01v3.9h3.01v-3.9Zm5.92 0h-3v3.9h3v-3.9Zm26.1-6h-3v3.9h3v-3.9Zm5.93 0h-3.01v3.9h3.01v-3.9Zm-5.93 6h-3v3.9h3v-3.9Zm5.93 0h-3.01v3.9h3.01v-3.9Z" fill="#83B3D3"/></svg>